<?xml version="1.0" standalone="no"?><!DOCTYPE svg PUBLIC "-//W3C//DTD SVG 1.1//EN" "http://www.w3.org/Graphics/SVG/1.1/DTD/svg11.dtd"><svg t="1484632973801" class="icon" style="" viewBox="0 0 1024 1024" version="1.1" xmlns="http://www.w3.org/2000/svg" p-id="1433" xmlns:xlink="http://www.w3.org/1999/xlink" width="200" height="200"><defs><style type="text/css"></style></defs><path d="M804.67968 552.42752l0 349.15328L685.18912 901.5808 685.18912 552.42752c0-54.5792-14.2336-95.05792-43.50976-123.77088-41.6768-40.88832-103.03488-47.23712-121.7024-48.16896l-85.85216 0 49.21344 124.60032c1.65888 4.17792 0.31744 8.93952-3.25632 11.64288-3.584 2.7136-8.54016 2.69312-12.10368-0.0512L223.22176 328.4992c-2.44736-1.90464-3.90144-4.80256-3.90144-7.91552 0-3.10272 1.45408-6.02112 3.90144-7.90528l244.75648-188.18048c1.80224-1.3824 3.93216-2.05824 6.0928-2.05824 2.10944 0 4.21888 0.65536 6.01088 2.00704 3.584 2.69312 4.9152 7.46496 3.25632 11.65312l-49.21344 124.59008 63.34464 0.18432c0 0 6.07232 0.33792 14.4896 1.05472l-0.03072-1.06496c5.36576-0.11264 127.85664-1.45408 213.43232 82.49344C778.00448 394.97728 804.67968 465.31584 804.67968 552.42752z" p-id="1434" fill="#ffffff"></path></svg>